<svg t="1744969476064" class="icon" viewBox="0 0 1024 1024" version="1.1" xmlns="http://www.w3.org/2000/svg" p-id="5006" width="512" height="512"><path d="M921.6 540.672c-17.408-17.92-34.816-36.352-53.248-52.736-6.144-5.632-15.36-9.216-23.552-9.728-28.16-1.024-56.32-0.512-85.504-0.512-0.512-6.656-1.024-11.776-1.024-16.896-0.512-21.504-2.56-23.552-24.576-23.552H199.168c-28.16 0-28.672 0.512-29.184 28.672 0 3.072-0.512 6.144-0.512 11.776h-22.016c-11.776 0-17.92 5.632-17.92 17.408v46.592c0 12.8 5.632 18.944 18.432 18.432h47.616c5.632 26.624 5.632 27.136 33.28 27.136h460.8c25.088 0 25.6-0.512 28.672-26.624 32.768 0 65.536-0.512 98.816 0.512 4.608 0 9.728 5.632 13.824 9.728 41.984 40.96 31.232 40.96 73.728-0.512 5.632-5.632 11.776-10.24 17.408-15.872-0.512-5.12-0.512-9.216-0.512-13.824zM384 246.272l-13.312 26.624c-16.384-3.072-22.016 9.728-28.16 24.576-13.824 33.28-26.624 66.048-22.528 102.912 2.048 19.456 3.584 22.528 22.528 22.528h270.336c19.456 0 22.016-2.56 22.016-22.016v-30.208c16.896-6.656 47.104 9.728 40.448-28.672h127.488c10.752 0 22.528-3.072 28.672 10.24 0.512 1.024 1.536 1.536 2.56 1.536 29.184-0.512 58.88 8.192 87.552-5.12V307.2c-5.632-2.048-11.264-5.632-17.408-6.144-19.968-1.024-40.448-0.512-60.416 0-4.608 0-11.264 1.536-12.8 4.096-5.632 10.752-14.336 8.704-23.04 8.704h-130.048c-4.096-26.624-4.096-24.576-30.208-27.136-44.544-4.096-89.088-10.752-132.096-15.872-3.072-8.704-6.144-16.384-9.216-24.576H384z" p-id="5007"></path><path d="M233.472 777.728c-27.648-16.384-55.296-33.28-83.456-48.128-23.04-12.288-40.96-28.16-47.616-54.272v-25.6c2.56-5.12 4.608-10.752 7.168-15.36 10.24-20.48 25.6-33.28 50.176-33.28H783.36c23.552 0 39.424 11.264 49.152 31.744 16.384 33.28 5.632 69.632-26.112 88.576-31.744 18.944-64 37.888-95.744 56.832-159.232-0.512-317.952-0.512-477.184-0.512z m-53.76-149.504c-19.456 3.072-34.304 18.944-35.328 37.888-1.536 19.456 10.752 36.352 29.696 41.984 21.504 6.144 38.4-3.072 49.664-25.088 3.584 11.776 5.12 29.184 13.824 40.448 9.216 11.776 24.064 21.504 38.4 25.088 31.744 8.192 57.344-9.216 72.192-46.592 11.264 30.208 30.208 49.152 62.464 48.64 31.744-0.512 50.688-19.456 59.392-46.08 8.192 10.752 14.848 25.088 26.112 32.768 10.752 7.68 26.112 11.776 39.936 12.288 27.136 1.024 47.104-16.896 56.32-44.544 9.728 11.264 18.944 25.6 31.744 35.84 13.824 11.264 31.744 11.776 49.152 7.168 27.648-7.168 43.008-30.208 44.544-63.488 8.192 7.168 15.872 17.408 26.112 20.992 9.728 3.584 23.552 2.048 33.28-1.536 17.408-6.656 25.6-27.136 20.48-45.056-5.12-18.944-22.528-32.256-41.472-31.232-21.504 1.024-34.816 15.36-40.448 44.032-12.288-28.672-32.256-45.056-62.464-44.032-30.72 1.024-49.152 19.968-58.88 49.152-13.824-33.792-34.304-50.176-62.464-49.664-27.136 0.512-48.128 16.896-59.904 49.664-11.776-31.744-32.256-51.2-66.048-49.664-25.6 1.024-41.984 15.36-57.344 48.128-10.24-28.16-28.16-46.08-57.856-48.128-29.184-1.536-49.152 13.824-62.464 41.472-11.264-30.72-27.136-44.032-48.64-40.448z" p-id="5008"></path><path d="M621.568 689.152c0 18.432 16.384 34.304 34.816 34.304 18.432-0.512 33.28-15.872 33.28-33.792 0-18.944-15.36-34.304-34.816-33.792-18.432 0-33.28 14.848-33.28 33.28zM409.088 655.36c-18.944 0.512-33.28 14.848-33.28 33.792 0 18.944 15.872 34.304 34.816 34.304 18.432-0.512 33.28-15.872 33.28-33.792 0.512-19.456-15.36-34.816-34.816-34.304zM287.232 655.36c-19.456 0-34.816 15.36-34.304 34.304 0.512 17.92 15.872 33.28 34.304 33.28 18.944 0 34.304-15.36 33.792-34.816-0.512-18.944-14.848-32.768-33.792-32.768zM532.48 655.36c-18.944 0.512-33.28 14.848-33.28 33.28 0 18.944 15.36 34.816 34.304 34.304 18.944-0.512 33.792-15.872 33.28-35.328-0.512-18.432-15.36-32.256-34.304-32.256zM184.832 687.616c6.144-8.704 13.312-14.848 12.288-18.432-1.536-5.12-8.704-9.216-13.312-13.824-4.096 4.608-11.264 8.704-11.264 13.824-0.512 4.608 6.144 9.728 12.288 18.432zM777.216 668.672c-8.704-6.144-14.336-13.312-18.432-12.288-5.12 1.024-9.216 8.192-13.824 12.8 4.608 4.096 8.704 11.264 13.312 11.776 5.12 0.512 10.24-6.144 18.944-12.288z" p-id="5009"></path></svg>